# xmcd
#
# Track frame offsets:
#	150
#	20388
#	33269
#	45953
#	65038
#	78571
#	97168
#	114886
#	133080
#	151134
#	169850
#	187864
#	204824
#	221041
#	239729
#	252444
#
# Disc length: 3553 seconds
#
# Revision: 2
# Processed by: cddbd v1.5.2PL0 Copyright (c) Steve Scherf et al.
# Submitted via: audiograbber 1.83.01
#
DISCID=d60ddf10
DTITLE=Wim Pols and Country Trail Band - De Ontmoeting
DYEAR=2005
DGENRE=Countrygospel
TTITLE0=De mens zoals God hem Heeft bedoeld
TTITLE1=Als ik denk aan Uw Liefde voor mij
TTITLE2=Bevorderd tot Heerlijkheid
TTITLE3=In de stilte
TTITLE4=Het bandje met de stem
TTITLE5=Niet zonder
TTITLE6=Druk, druk, druk
TTITLE7=Zo hoort het te zijn
TTITLE8=Het Levende Woord
TTITLE9=Het Leven, de Waarheid, de Weg
TTITLE10=Een nieuw perspectief
TTITLE11=De Vrede van de Heer
TTITLE12=Zingen, spelen, dansen
TTITLE13=De koffer
TTITLE14=Een grote God
TTITLE15=Uw genade is mij genoeg
EXTD=
EXTT0=
EXTT1=
EXTT2=
EXTT3=
EXTT4=
EXTT5=
EXTT6=
EXTT7=
EXTT8=
EXTT9=
EXTT10=
EXTT11=
EXTT12=
EXTT13=
EXTT14=
EXTT15=
PLAYORDER=
